PathFileType	4	(X/Y/Z)	D:\TRACE\spotREDO_2-26-24\spot_Both_Motion_3_7-v60.trc
DataRate	CameraRate	NumFrames	NumMarkers	Units	OrigDataRate	OrigDataStartFrame	OrigNumFrames
100.00	100.00	      14	9	mm	100.00	2626	      7000
Frame#	Time	front left toe			Front right toe			aft left toe			aft right toe			Arm			FL body			FR body			AL Body			AR Body			
		X1	Y1	Z1	X2	Y2	Z2	X3	Y3	Z3	X4	Y4	Z4	X5	Y5	Z5	X6	Y6	Z6	X7	Y7	Z7	X8	Y8	Z8	X9	Y9	Z9	

2626	26.250	-164.17755	81.14792	-510.29642	189.59937	80.20032	-445.54700	-219.14964	1.63476	151.14078	194.52805	27.66707	164.45398	56.16271	782.42419	-750.37091	-146.59000	661.69135	-508.59363	9.22395	665.40625	-519.36902	-91.80909	524.85632	362.97211	55.92522	517.08923	354.34686	
2627	26.260	-164.45670	81.20282	-510.60931	189.49388	80.30118	-445.60892	-218.66968	1.79444	150.85715	197.19873	40.81763	167.09583	56.34828	782.58441	-751.32385	-149.59253	662.64594	-510.24988	6.05304	666.18988	-521.39459	-92.26261	525.15375	361.28134	54.71660	517.96533	352.34842	
2628	26.270	-165.12108	79.86816	-510.77097	189.60196	80.27223	-445.51193	-218.87415	2.05650	150.72203	197.10464	55.10313	161.70126	56.50443	782.81976	-750.80121	-151.91449	662.91620	-511.67404	3.79550	665.92194	-523.11884	-93.75138	525.69574	359.82895	53.51831	518.12183	350.88370	
2629	26.280	-165.71086	79.61595	-510.64191	189.53442	80.18842	-445.54245	-219.21918	2.25781	150.70247	206.40785	69.49208	152.20554	56.10312	782.70630	-750.57281	-153.60397	662.97455	-513.06226	1.64749	665.34949	-524.71918	-94.71973	526.69403	358.46136	52.28905	518.15613	349.19919	
2630	26.290	-165.10355	79.54993	-511.08102	189.46468	80.07529	-445.60312	-219.45195	2.24027	150.71927	207.80495	81.73226	142.24657	55.98891	781.79651	-750.99481	-155.58911	662.87225	-514.34790	0.04632	665.26599	-526.18658	-95.86166	526.84796	357.07541	51.20509	518.56470	347.70624	
2631	26.300	-164.67464	79.29449	-511.21814	189.64221	80.40753	-445.66504	-219.45862	1.81319	150.65143	211.54303	92.91124	136.86835	55.83369	781.32697	-751.09515	-157.50580	662.68445	-515.54968	-1.88126	665.22186	-527.53552	-96.20390	526.53876	355.65024	50.70049	518.39569	345.71613	
2632	26.310	-165.29761	78.16584	-511.22244	189.58009	80.50992	-445.82013	-219.41109	1.67781	150.55309	211.61136	101.21516	135.86447	55.39460	781.05853	-750.73999	-158.18506	662.07233	-516.75507	-3.87511	665.05096	-529.07129	-96.54184	526.48236	354.49466	50.37623	518.33759	344.90063	
2633	26.320	-165.59229	78.06776	-511.29553	189.70143	80.52868	-445.92474	-219.40851	1.84866	150.50156	215.50223	110.26347	136.68639	54.85660	781.28510	-751.16669	-161.04367	662.21387	-517.61200	-5.74647	664.92615	-530.44830	-96.25637	526.59290	353.30716	50.77404	518.21606	343.15875	
2634	26.330	-165.60222	78.10641	-511.35410	189.50230	80.33383	-446.26743	-219.35637	2.11528	150.46599	219.64487	119.90909	134.66737	53.87634	781.65948	-751.57733	-163.05627	661.92456	-518.64270	-7.59703	664.56775	-531.71539	-95.98692	526.81763	352.24377	50.95532	518.31891	341.30890	
2635	26.340	-165.60849	77.93764	-511.33499	189.33263	80.14835	-446.49670	-219.33582	2.24872	150.50146	226.02119	130.56929	130.72435	53.06844	782.29407	-751.37274	-164.81987	661.45544	-519.77216	-9.35552	663.98193	-533.17749	-95.55472	527.13391	351.29199	51.25180	518.87634	340.39499	
2636	26.350	-165.69572	77.25835	-511.34155	189.14934	79.94485	-446.72864	-219.26207	2.21333	150.48668	232.07762	139.74396	125.31953	52.35393	782.36255	-751.08234	-166.18608	660.28790	-520.57281	-11.07478	663.11890	-534.46790	-95.27245	527.33759	350.38702	51.53384	519.30304	339.30389	
2637	26.360	-165.93971	76.32039	-511.57996	189.31139	79.42192	-447.34442	-219.24586	2.24636	150.55313	238.00615	146.28137	120.31269	51.96925	782.09760	-751.14337	-167.82147	659.24683	-521.38623	-12.70265	662.30933	-535.77557	-94.42017	527.47729	349.56604	52.34051	519.60413	337.67413	
2638	26.370	-165.95241	75.84161	-511.52936	189.38808	79.68384	-447.68076	-219.23619	2.29241	150.57010	243.25877	149.30327	115.95122	51.83005	782.07343	-751.14325	-169.41832	658.56769	-522.30359	-14.00114	661.80219	-536.89410	-93.78938	527.66382	348.70499	52.96977	520.11127	336.85309	
2639	26.380	-166.07262	75.73608	-511.46344	189.06398	79.59877	-448.05658	-219.17288	2.43441	150.57678	247.59618	150.04637	112.02210	51.38203	782.34406	-750.98303	-170.50334	658.09784	-522.68616	-15.35493	661.45874	-537.80011	-91.92390	527.69519	347.84781	54.11781	520.22211	335.19366	
